<svg width="59" height="59" viewBox="0 0 59 59" fill="none" xmlns="http://www.w3.org/2000/svg">
<rect width="59" height="59" rx="12" fill="url(#paint0_linear_6_15)"/>
<g opacity="0.1">
<path fill-rule="evenodd" clip-rule="evenodd" d="M33.8199 9.80765H24.5672V23.0661L24.5672 23.5099C24.5672 24.1221 24.4323 24.7258 24.1733 25.2796L22.6484 24.5623C19.7045 23.1775 16.2439 23.397 13.5036 25.1423L9.14261 27.92L11.9239 32.176L16.2849 29.3983C17.5305 28.605 19.1035 28.5052 20.4417 29.1347L21.726 29.7388L16.9458 38.412C16.5003 39.2202 15.7995 39.8626 14.9501 40.2413L9.47747 42.6813L11.589 47.2972L17.0616 44.8573C18.9304 44.0241 20.4722 42.6109 21.4522 40.8327L22.1649 39.5396L25.8346 42.6206C26.2882 43.0014 26.6562 43.4715 26.915 44.0009L29.7044 49.7051L34.3245 47.5031L31.5352 41.7989C30.9657 40.6343 30.1561 39.6 29.1582 38.7623L24.6701 34.9942L26.301 32.0352L27.9148 32.9005C30.4149 34.241 33.3953 34.3923 36.0215 33.3121L41.7889 30.9397L39.8157 26.2644L34.0483 28.6368C32.8545 29.1279 31.4998 29.0591 30.3634 28.4497L28.7449 27.5819C29.371 26.3153 29.6976 24.9228 29.6976 23.5099V23.0661H33.8199C35.1183 23.0661 36.7313 22.6643 38.0721 21.5886C39.5055 20.4387 40.4382 18.6649 40.4382 16.3718C40.4382 14.0707 39.4964 12.3045 38.0219 11.1808C36.6568 10.1405 35.0483 9.80765 33.8199 9.80765ZM29.6975 18.0013H33.8199C34.1427 18.0013 34.5563 17.8829 34.8367 17.6579C34.96 17.559 35.0637 17.4364 35.1427 17.269C35.2221 17.101 35.3078 16.8212 35.3078 16.3718C35.3078 15.922 35.2219 15.6592 35.1524 15.5153C35.084 15.3736 34.996 15.2732 34.8869 15.1901C34.6308 14.9949 34.2128 14.8725 33.8199 14.8725H29.6975V18.0013Z" fill="white"/>
</g>
<g opacity="0.1">
<path fill-rule="evenodd" clip-rule="evenodd" d="M36.729 9.08035H27.4763V22.3388L27.4763 22.7826C27.4763 23.3948 27.3414 23.9985 27.0824 24.5523L25.5575 23.835C22.6135 22.4502 19.153 22.6697 16.4127 24.415L12.0517 27.1927L14.833 31.4487L19.194 28.671C20.4396 27.8777 22.0126 27.7779 23.3508 28.4074L24.6351 29.0115L19.8549 37.6847C19.4094 38.4929 18.7086 39.1353 17.8592 39.514L12.3866 41.954L14.4981 46.5699L19.9707 44.13C21.8395 43.2968 23.3813 41.8836 24.3613 40.1054L25.074 38.8123L28.7437 41.8933C29.1973 42.2741 29.5653 42.7442 29.8241 43.2736L32.6135 48.9778L37.2336 46.7758L34.4443 41.0716C33.8748 39.907 33.0652 38.8727 32.0673 38.035L27.5792 34.2669L29.2101 31.3079L30.8239 32.1732C33.324 33.5137 36.3044 33.665 38.9306 32.5848L44.6979 30.2124L42.7247 25.5371L36.9574 27.9095C35.7636 28.4006 34.4089 28.3318 33.2725 27.7224L31.654 26.8546C32.28 25.588 32.6066 24.1955 32.6066 22.7826V22.3388H36.729C38.0274 22.3388 39.6404 21.937 40.9812 20.8613C42.4146 19.7114 43.3472 17.9376 43.3472 15.6446C43.3472 13.3434 42.4055 11.5772 40.931 10.4535C39.5659 9.41318 37.9574 9.08035 36.729 9.08035ZM32.6066 17.274H36.729C37.0518 17.274 37.4654 17.1556 37.7458 16.9306C37.8691 16.8317 37.9728 16.7091 38.0518 16.5417C38.1311 16.3737 38.2169 16.0939 38.2169 15.6446C38.2169 15.1947 38.131 14.9319 38.0615 14.788C37.993 14.6463 37.9051 14.5459 37.796 14.4628C37.5399 14.2676 37.1219 14.1452 36.729 14.1452H32.6066V17.274Z" fill="white"/>
</g>
<path fill-rule="evenodd" clip-rule="evenodd" d="M39.6381 9.08035H30.3854V22.3388L30.3854 22.7826C30.3854 23.3948 30.2505 23.9985 29.9914 24.5523L28.4666 23.835C25.5226 22.4502 22.0621 22.6697 19.3218 24.415L14.9608 27.1927L17.7421 31.4487L22.1031 28.671C23.3487 27.8777 24.9217 27.7779 26.2598 28.4074L27.5442 29.0115L22.764 37.6847C22.3185 38.4929 21.6177 39.1353 20.7682 39.514L15.2956 41.954L17.4072 46.5699L22.8798 44.13C24.7486 43.2968 26.2904 41.8836 27.2704 40.1054L27.9831 38.8123L31.6528 41.8933C32.1064 42.2741 32.4744 42.7442 32.7332 43.2736L35.5226 48.9778L40.1427 46.7758L37.3534 41.0716C36.7839 39.907 35.9743 38.8727 34.9764 38.035L30.4883 34.2669L32.1192 31.3079L33.733 32.1732C36.2331 33.5137 39.2135 33.665 41.8396 32.5848L47.607 30.2124L45.6338 25.5371L39.8664 27.9095C38.6727 28.4006 37.318 28.3318 36.1816 27.7224L34.5631 26.8546C35.1891 25.588 35.5157 24.1955 35.5157 22.7826V22.3388H39.6381C40.9365 22.3388 42.5495 21.937 43.8903 20.8613C45.3237 19.7114 46.2563 17.9376 46.2563 15.6446C46.2563 13.3434 45.3145 11.5772 43.8401 10.4535C42.475 9.41318 40.8665 9.08035 39.6381 9.08035ZM35.5157 17.274H39.6381C39.9609 17.274 40.3745 17.1556 40.6549 16.9306C40.7782 16.8317 40.8818 16.7091 40.9609 16.5417C41.0402 16.3737 41.126 16.0939 41.126 15.6446C41.126 15.1947 41.0401 14.9319 40.9706 14.788C40.9021 14.6463 40.8142 14.5459 40.7051 14.4628C40.449 14.2676 40.031 14.1452 39.6381 14.1452H35.5157V17.274Z" fill="white"/>
<defs>
<linearGradient id="paint0_linear_6_15" x1="29.5" y1="0" x2="29.5" y2="59" gradientUnits="userSpaceOnUse">
<stop stop-color="#232323"/>
<stop offset="1"/>
</linearGradient>
</defs>
</svg>
